<svg id="_1" data-name="1" xmlns="http://www.w3.org/2000/svg" viewBox="0 0 50 50"><defs><style>.cls-1{fill:#fff;}</style></defs><title>iconos</title><path class="cls-1" d="M25,50A25,25,0,1,1,50,25,25,25,0,0,1,25,50ZM25,2.9A22.1,22.1,0,1,0,47.1,25,22.11,22.11,0,0,0,25,2.9Z"/><path class="cls-1" d="M25,14.2c3.8,0,4.2,0,5.7.1a8.25,8.25,0,0,1,2.6.5,4.57,4.57,0,0,1,1.6,1.1A5.72,5.72,0,0,1,36,17.5a8.25,8.25,0,0,1,.5,2.6c.1,1.5.1,1.9.1,5.7s0,4.2-.1,5.7a8.25,8.25,0,0,1-.5,2.6,4.57,4.57,0,0,1-1.1,1.6,5.72,5.72,0,0,1-1.6,1.1,8.25,8.25,0,0,1-2.6.5c-1.5.1-1.9.1-5.7.1s-4.2,0-5.7-.1a8.25,8.25,0,0,1-2.6-.5,4.57,4.57,0,0,1-1.6-1.1A5.72,5.72,0,0,1,14,34.1a8.25,8.25,0,0,1-.5-2.6c-.1-1.5-.1-1.9-.1-5.7s0-4.2.1-5.7a8.25,8.25,0,0,1,.5-2.6,4.57,4.57,0,0,1,1.1-1.6,5.72,5.72,0,0,1,1.6-1.1,8.25,8.25,0,0,1,2.6-.5c1.5-.1,1.9-.1,5.7-.1m0-2.5c-3.8,0-4.3,0-5.8.1a9.64,9.64,0,0,0-3.4.7,7.58,7.58,0,0,0-2.5,1.6,6.26,6.26,0,0,0-1.6,2.5A12.56,12.56,0,0,0,11,20c-.1,1.5-.1,2-.1,5.8s0,4.3.1,5.8a9.64,9.64,0,0,0,.7,3.4,7.58,7.58,0,0,0,1.6,2.5,6.26,6.26,0,0,0,2.5,1.6,12.56,12.56,0,0,0,3.4.7c1.5.1,2,.1,5.8.1s4.3,0,5.8-.1a9.64,9.64,0,0,0,3.4-.7,7.58,7.58,0,0,0,2.5-1.6A6.26,6.26,0,0,0,38.3,35a12.56,12.56,0,0,0,.7-3.4c.1-1.5.1-2,.1-5.8s0-4.3-.1-5.8a9.64,9.64,0,0,0-.7-3.4,7.58,7.58,0,0,0-1.6-2.5,6.26,6.26,0,0,0-2.5-1.6,12.56,12.56,0,0,0-3.4-.7c-1.5-.1-2-.1-5.8-.1Z"/><path class="cls-1" d="M25,18.5a7.17,7.17,0,0,0-7.2,7.2A7.26,7.26,0,0,0,25,33a7.17,7.17,0,0,0,7.2-7.2A7.26,7.26,0,0,0,25,18.5Zm0,12a4.7,4.7,0,1,1,4.7-4.7A4.69,4.69,0,0,1,25,30.5Z"/><circle class="cls-1" cx="32.5" cy="18.3" r="1.7"/></svg>