<svg id="_1" data-name="1" xmlns="http://www.w3.org/2000/svg" viewBox="0 0 50 50"><defs><style>.cls-1{fill:#fff;}</style></defs><title>iconos</title><path class="cls-1" d="M25,50A25,25,0,1,1,50,25,25,25,0,0,1,25,50ZM25,2.9A22.1,22.1,0,1,0,47.1,25,22.11,22.11,0,0,0,25,2.9Z"/><path class="cls-1" d="M36.9,20.1a4.54,4.54,0,0,0-1-2.4,3.05,3.05,0,0,0-2.4-1c-3.4-.2-8.5-.2-8.5-.2s-5.1,0-8.5.2a3.83,3.83,0,0,0-2.4,1,5.64,5.64,0,0,0-1,2.4s-.2,2-.2,3.9v1.8c0,2,.2,3.9.2,3.9a4.54,4.54,0,0,0,1,2.4,3.79,3.79,0,0,0,2.7,1c1.9.2,8.3.2,8.3.2s5.1,0,8.5-.3A3.83,3.83,0,0,0,36,32a5.64,5.64,0,0,0,1-2.4s.2-2,.2-3.9V23.9A30,30,0,0,0,36.9,20.1ZM22.5,28.2V21.4l6.6,3.4Z"/></svg>