<svg id="_1" data-name="1" xmlns="http://www.w3.org/2000/svg" viewBox="0 0 50 50"><defs><style>.cls-1{fill:#fff;}</style></defs><title>iconos</title><path class="cls-1" d="M25,50A25,25,0,1,1,50,25,25,25,0,0,1,25,50ZM25,2.9A22.1,22.1,0,1,0,47.1,25,22.11,22.11,0,0,0,25,2.9Z"/><path class="cls-1" d="M19.7,37.7c10.7,0,16.6-8.9,16.6-16.6v-.8a11.84,11.84,0,0,0,2.9-3,9.54,9.54,0,0,1-3.3.9A6.32,6.32,0,0,0,38.5,15a9.79,9.79,0,0,1-3.7,1.4,6,6,0,0,0-4.3-1.8,5.8,5.8,0,0,0-5.8,5.8,5.07,5.07,0,0,0,.2,1.3,16.6,16.6,0,0,1-12-6.1,6,6,0,0,0-.8,2.9,5.93,5.93,0,0,0,2.6,4.9,5.28,5.28,0,0,1-2.6-.7v.1a5.79,5.79,0,0,0,4.7,5.7,7.72,7.72,0,0,1-1.5.2,4.1,4.1,0,0,1-1.1-.1,5.7,5.7,0,0,0,5.4,4,11.45,11.45,0,0,1-7.2,2.5A6.6,6.6,0,0,1,11,35,15,15,0,0,0,19.7,37.7Z"/></svg>